<?xml version="1.0" encoding="UTF-8"?>
<!DOCTYPE svg PUBLIC "-//W3C//DTD SVG 1.1//EN" "http://www.w3.org/Graphics/SVG/1.1/DTD/svg11.dtd">
<svg xmlns="http://www.w3.org/2000/svg" version="1.1" width="172px" height="176px" style="shape-rendering:geometricPrecision; text-rendering:geometricPrecision; image-rendering:optimizeQuality; fill-rule:evenodd; clip-rule:evenodd" xmlns:xlink="http://www.w3.org/1999/xlink">
<g><path style="opacity:0.863" fill="#f6fbfc" d="M 107.5,18.5 C 106.167,18.5 104.833,18.5 103.5,18.5C 76.0269,17.9751 57.8602,30.6418 49,56.5C 46.0406,70.7901 48.3739,84.1234 56,96.5C 56.4828,95.552 56.6495,94.552 56.5,93.5C 57.2509,99.8186 60.2509,104.985 65.5,109C 72.9181,115.046 81.2515,118.879 90.5,120.5C 73.6138,118.126 60.4471,109.793 51,95.5C 39.845,73.6458 41.1783,52.6458 55,32.5C 58.5338,28.6311 62.3672,25.1311 66.5,22C 63.0525,22.7121 59.7192,24.0455 56.5,26C 50.2866,30.6017 44.2866,35.4351 38.5,40.5C 39.8823,37.6057 41.8823,35.1057 44.5,33C 50.1559,28.5038 56.1559,24.5038 62.5,21C 66.1895,20.4187 69.8562,20.5853 73.5,21.5C 84.7444,17.703 96.0778,16.703 107.5,18.5 Z"/></g>
<g><path style="opacity:0.979" fill="#0960e9" d="M 103.5,18.5 C 118.839,21.2582 131.672,28.5916 142,40.5C 146.417,49.8473 144.251,57.3473 135.5,63C 129.967,65.3064 124.633,64.9731 119.5,62C 98.3516,42.9858 78.5183,44.1525 60,65.5C 54.3169,74.4339 53.1502,83.7672 56.5,93.5C 56.6495,94.552 56.4828,95.552 56,96.5C 48.3739,84.1234 46.0406,70.7901 49,56.5C 57.8602,30.6418 76.0269,17.9751 103.5,18.5 Z"/></g>
<g><path style="opacity:0.976" fill="#17d39c" d="M 90.5,120.5 C 93.0961,119.735 95.7628,119.401 98.5,119.5C 94.4554,122.577 89.7887,124.411 84.5,125C 56.5616,126.12 37.7282,113.62 28,87.5C 26,78.1667 26,68.8333 28,59.5C 30.4954,52.5003 33.9954,46.1669 38.5,40.5C 44.2866,35.4351 50.2866,30.6017 56.5,26C 59.7192,24.0455 63.0525,22.7121 66.5,22C 62.3672,25.1311 58.5338,28.6311 55,32.5C 41.1783,52.6458 39.845,73.6458 51,95.5C 60.4471,109.793 73.6138,118.126 90.5,120.5 Z"/></g>
<g><path style="opacity:0.025" fill="#e9f0fd" d="M 103.5,18.5 C 104.833,18.5 106.167,18.5 107.5,18.5C 121.602,21.0943 133.436,27.761 143,38.5C 148.976,53.5494 144.143,62.8828 128.5,66.5C 120.746,64.5845 114.08,60.7512 108.5,55C 89.0633,45.9828 73.23,50.1495 61,67.5C 56.458,75.7024 54.958,84.3691 56.5,93.5C 53.1502,83.7672 54.3169,74.4339 60,65.5C 78.5183,44.1525 98.3516,42.9858 119.5,62C 124.633,64.9731 129.967,65.3064 135.5,63C 144.251,57.3473 146.417,49.8473 142,40.5C 131.672,28.5916 118.839,21.2582 103.5,18.5 Z"/></g>
<g><path style="opacity:0.828" fill="#f4f8fa" d="M 38.5,40.5 C 33.9954,46.1669 30.4954,52.5003 28,59.5C 26,68.8333 26,78.1667 28,87.5C 37.7282,113.62 56.5616,126.12 84.5,125C 89.7887,124.411 94.4554,122.577 98.5,119.5C 99.1499,119.804 99.8165,120.137 100.5,120.5C 102.63,119.533 104.63,118.366 106.5,117C 110.2,112.965 114.2,109.298 118.5,106C 127.83,101.578 135.997,103.078 143,110.5C 147.953,121.36 145.787,130.526 136.5,138C 105.577,160.234 74.9102,159.9 44.5,137C 32.9003,126.054 25.567,112.72 22.5,97C 25.5505,89.712 26.2172,82.212 24.5,74.5C 24.3273,60.9822 28.9939,49.6489 38.5,40.5 Z"/></g>
<g><path style="opacity:0.983" fill="#074793" d="M 24.5,98.5 C 41.2493,126.697 65.2493,135.531 96.5,125C 104.917,120.785 112.25,115.119 118.5,108C 129.981,101.822 138.481,104.655 144,116.5C 144.787,125.096 141.621,131.929 134.5,137C 113.44,152.676 90.4403,156.343 65.5,148C 43.5886,138.261 29.9219,121.761 24.5,98.5 Z"/></g>
</svg>
