<?xml version="1.0" encoding="UTF-8"?>
<svg id="Layer_1" data-name="Layer 1" xmlns="http://www.w3.org/2000/svg" viewBox="0 0 414.94 166.78">
  <defs>
    <style>
      .cls-1 {
        fill: #004592;
      }

      .cls-2 {
        fill: #00d299;
      }

      .cls-3 {
        fill: #005fe9;
      }
    </style>
  </defs>
  <g>
    <path class="cls-3" d="m115.92,51.38l.42.4c3.71,3.62,8.61,5.61,13.8,5.61,10.9,0,19.77-8.87,19.77-19.77,0-4.17-1.29-8.16-3.71-11.54l-.75-1.04c-8.55-9.24-19.11-16.5-30.76-21.15l-.03.09c-7.04-2.64-14.45-3.98-22.03-3.98C58.05,0,29.92,28.13,29.92,62.71c0,13.61,4.3,26.53,12.25,37.25-2.37-5.52-3.59-11.48-3.59-17.62,0-24.75,20.13-44.88,44.87-44.88,12.23,0,24.02,5.06,32.47,13.91Z"/>
    <path class="cls-2" d="m83.49,127.23c-16.69.45-31.85-11.99-37.56-17.37-15.34-14.45-21.6-29.12-21.6-50.62,0-22.73,11.69-43.96,30.41-56.29C35.93,9.76,19.9,23.22,9.94,40.82c-6.93,13.69-8.59,29.44-4.65,44.33,4.29,16.22,14.82,29.94,29.63,38.63,14.84,8.71,31.91,11.14,48.09,6.87,3.94-1.04,7.96-2.77,11.5-4.89-3.53.86-7.29,1.36-11.02,1.47Z"/>
    <path class="cls-1" d="m130.15,107.25c-5.3,0-10.34,2.06-13.84,5.66-.13.13-.69.64-1.38,1.29-1.1,1.01-2.56,2.34-3.09,2.89-9.23,9.52-19.63,15.71-31.79,18.93-17.38,4.6-35.52,2.16-51.06-6.88-13.39-7.79-23.49-19.67-28.97-33.93,6.16,40.84,41.1,71.56,83.46,71.56,23,0,45.23-9.53,61.11-26.17l.45-.54c3.17-3.61,4.91-8.24,4.91-13.04,0-10.9-8.87-19.77-19.77-19.77Z"/>
  </g>
  <g>
    <path class="cls-1" d="m205.13,97.81c5.43,0,9.65-2.14,12.34-5.54v7.19c-3.02,2.63-6.75,4.22-12.34,4.22-11.74,0-20.02-8.56-20.02-20.29s8.28-20.29,20.02-20.29c5.59,0,9.32,1.59,12.34,4.22v7.19c-2.69-3.4-6.91-5.54-12.34-5.54-7.57,0-13.88,5.76-13.88,14.43s6.31,14.42,13.88,14.42Z"/>
    <path class="cls-1" d="m242.98,63.1c11.19,0,20.57,8.56,20.57,20.29s-9.11,20.29-20.57,20.29-20.57-8.56-20.57-20.29,9.1-20.29,20.57-20.29Zm0,34.94c8.12,0,14.37-6.25,14.37-14.64s-5.98-14.64-14.37-14.64-14.37,6.25-14.37,14.64,6.25,14.64,14.37,14.64Z"/>
    <path class="cls-1" d="m304.41,64.19v40.86l-29.34-29.13v26.66h-6.03v-40.86l29.34,29.12v-26.66h6.03Z"/>
    <path class="cls-1" d="m347.47,64.19v40.86l-29.34-29.13v26.66h-6.03v-40.86l29.34,29.12v-26.66h6.03Z"/>
    <path class="cls-1" d="m361.19,97.1h17.28v5.49h-23.31v-38.4h23.31v5.49h-17.28v9.32h16.18v5.49h-16.18v12.62Z"/>
    <path class="cls-1" d="m414.12,64.19l-11.9,18.32,12.72,20.07h-6.86l-9.38-14.7-9.54,14.7h-6.86l13.05-20.07-11.68-18.32h6.86l8.28,13,8.45-13h6.86Z"/>
  </g>
</svg>